<svg width="48" height="48" viewBox="0 0 48 48" fill="none" xmlns="http://www.w3.org/2000/svg">
<g id="book 1">
<path id="Vector" d="M40.5 9H7.5C5.01472 9 3 11.0147 3 13.5V34.5C3 36.9853 5.01472 39 7.5 39H40.5C42.9854 39 45 36.9853 45 34.5V13.5C45 11.0147 42.9854 9 40.5 9Z" fill="#388E3C"/>
<path id="Vector_2" d="M24 9V39H7.5C6.30652 39 5.16193 38.5259 4.31802 37.6819C3.47411 36.838 3 35.6934 3 34.5V13.5C3 12.3065 3.47411 11.1619 4.31802 10.318C5.16193 9.47411 6.30652 9 7.5 9H24Z" fill="#66BB6A"/>
<path id="Vector_3" d="M18 9V30C18 30.3978 17.8419 30.7794 17.5606 31.0606C17.2794 31.3419 16.8978 31.5 16.5 31.5C16.1022 31.5 15.7206 31.3419 15.4394 31.0606C15.1581 30.7794 15 30.3978 15 30V9H18Z" fill="#F5F5F5"/>
<path id="Vector_4" d="M37.5 19.5H30C29.6022 19.5 29.2206 19.3419 28.9394 19.0606C28.6581 18.7794 28.5 18.3978 28.5 18C28.5 17.6022 28.6581 17.2206 28.9394 16.9394C29.2206 16.6581 29.6022 16.5 30 16.5H37.5C37.8978 16.5 38.2794 16.6581 38.5606 16.9394C38.8419 17.2206 39 17.6022 39 18C39 18.3978 38.8419 18.7794 38.5606 19.0606C38.2794 19.3419 37.8978 19.5 37.5 19.5Z" fill="#E0E0E0"/>
<path id="Vector_5" d="M37.5 25.5H33C32.6022 25.5 32.2206 25.3419 31.9394 25.0606C31.6581 24.7794 31.5 24.3978 31.5 24C31.5 23.6022 31.6581 23.2206 31.9394 22.9394C32.2206 22.6581 32.6022 22.5 33 22.5H37.5C37.8978 22.5 38.2794 22.6581 38.5606 22.9394C38.8419 23.2206 39 23.6022 39 24C39 24.3978 38.8419 24.7794 38.5606 25.0606C38.2794 25.3419 37.8978 25.5 37.5 25.5Z" fill="#E0E0E0"/>
<path id="Vector_6" d="M37.5 31.5H30C29.6022 31.5 29.2206 31.3419 28.9394 31.0606C28.6581 30.7794 28.5 30.3978 28.5 30C28.5 29.6022 28.6581 29.2206 28.9394 28.9394C29.2206 28.6581 29.6022 28.5 30 28.5H37.5C37.8978 28.5 38.2794 28.6581 38.5606 28.9394C38.8419 29.2206 39 29.6022 39 30C39 30.3978 38.8419 30.7794 38.5606 31.0606C38.2794 31.3419 37.8978 31.5 37.5 31.5Z" fill="#E0E0E0"/>
</g>
</svg>
