<svg width="24" height="24" viewBox="0 0 24 24" fill="none" xmlns="http://www.w3.org/2000/svg">
<g id="mdi:cancel-circle-outline">
<path id="Vector" d="M11.9957 20C7.58761 20 3.99914 16.41 3.99914 12C3.99914 7.59 7.58761 4 11.9957 4C16.4038 4 19.9923 7.59 19.9923 12C19.9923 16.41 16.4038 20 11.9957 20ZM11.9957 2C6.46809 2 2 6.47 2 12C2 17.53 6.46809 22 11.9957 22C17.5234 22 21.9914 17.53 21.9914 12C21.9914 6.47 17.5234 2 11.9957 2ZM14.5846 8L11.9957 10.59L9.40683 8L7.99743 9.41L10.5863 12L7.99743 14.59L9.40683 16L11.9957 13.41L14.5846 16L15.994 14.59L13.4051 12L15.994 9.41L14.5846 8Z" fill="#FF7375"/>
</g>
</svg>
