<svg width="24" height="24" viewBox="0 0 24 24" fill="none" xmlns="http://www.w3.org/2000/svg">
<g id="mingcute:pen-line" clip-path="url(#clip0_3_41854)">
<g id="Group">
<path id="Vector" d="M12.1384 4.53707C12.4749 4.40262 12.8416 4.36212 13.1993 4.41989C13.557 4.47767 13.8923 4.63154 14.1694 4.86507L14.2954 4.98007L19.0194 9.70407C19.2759 9.96034 19.458 10.2815 19.546 10.6333C19.6341 10.9851 19.6249 11.3541 19.5194 11.7011L19.4624 11.8611L17.0974 17.7741C16.9648 18.1051 16.746 18.3947 16.4638 18.6127C16.1816 18.8308 15.8462 18.9693 15.4924 19.0141L10.4134 19.6491C10.2834 19.6641 10.1454 19.6831 10.0034 19.7051L9.55937 19.7771L9.32737 19.8191L8.60437 19.9591L8.10937 20.0651L7.36437 20.2321L6.40937 20.4601L4.85737 20.8561L4.21137 21.0301C4.04835 21.0749 3.87668 21.0781 3.7121 21.0393C3.54753 21.0006 3.39531 20.9211 3.26942 20.8083C3.14352 20.6954 3.04797 20.5527 2.99153 20.3934C2.93509 20.234 2.91956 20.063 2.94637 19.8961L2.98037 19.7501L3.27537 18.6381L3.53937 17.5901L3.76737 16.6351L3.93437 15.8901L4.03937 15.3941L4.18037 14.6721L4.26037 14.2151L4.32437 13.7871L4.98437 8.50707C5.02586 8.18119 5.14702 7.87055 5.33713 7.60265C5.52725 7.33474 5.78046 7.11782 6.07437 6.97107L6.22537 6.90207L12.1384 4.53707ZM12.8804 6.39407L6.96837 8.75907L6.38437 13.4311L6.33637 13.8271C6.23835 14.5627 6.1099 15.294 5.95137 16.0191L5.78037 16.8051L9.06837 13.5171C8.95438 13.0918 8.98391 12.6408 9.15237 12.234C9.32083 11.8272 9.61881 11.4874 10.0001 11.2673C10.3814 11.0471 10.8247 10.9589 11.2612 11.0164C11.6977 11.0738 12.1031 11.2737 12.4144 11.585C12.7257 11.8964 12.9256 12.3017 12.9831 12.7382C13.0405 13.1748 12.9523 13.618 12.7322 13.9993C12.512 14.3806 12.1722 14.6786 11.7654 14.8471C11.3586 15.0155 10.9076 15.0451 10.4824 14.9311L7.19437 18.2191L7.58637 18.1321L8.37037 17.9671C8.85892 17.867 9.3501 17.7803 9.84337 17.7071L15.2404 17.0311L17.6054 11.1191L12.8804 6.39407ZM15.2434 3.10007C15.4154 2.92774 15.6445 2.82413 15.8875 2.80866C16.1305 2.7932 16.3708 2.86694 16.5634 3.01607L16.6574 3.10007L20.8994 7.34207C21.0806 7.52161 21.1864 7.76364 21.1951 8.01861C21.2037 8.27359 21.1146 8.52223 20.9459 8.71365C20.7772 8.90506 20.5418 9.02477 20.2877 9.04827C20.0337 9.07177 19.7803 8.99729 19.5794 8.84007L19.4854 8.75607L15.2434 4.51407C15.0559 4.32654 14.9506 4.07223 14.9506 3.80707C14.9506 3.5419 15.0559 3.28759 15.2434 3.10007Z" fill="#2672E7"/>
</g>
</g>
<defs>
<clipPath id="clip0_3_41854">
<rect width="24" height="24" fill="white"/>
</clipPath>
</defs>
</svg>
