<svg width="44" height="48" viewBox="0 0 44 48" fill="none" xmlns="http://www.w3.org/2000/svg">
<g id="student 1">
<path id="Vector" d="M32.0379 12.6003L30.0029 9.6003C29.872 9.40989 29.7016 9.25617 29.5056 9.15184C29.3095 9.04752 29.0935 8.99557 28.8754 9.0003H15.4004C15.2018 9.00028 15.0055 9.0472 14.8251 9.13783C14.6447 9.22846 14.4845 9.36064 14.3554 9.52528L11.9904 12.5253C11.7873 12.8012 11.6802 13.1465 11.6879 13.5003V24.4353C11.6915 27.0477 12.6445 29.5521 14.3378 31.3994C16.0312 33.2468 18.3268 34.2863 20.7216 34.2903H23.2791C25.674 34.2863 27.9695 33.2468 29.663 31.3994C31.3563 29.5521 32.3093 27.0477 32.3129 24.4353V13.5003C32.3129 13.1757 32.2164 12.8599 32.0379 12.6003Z" fill="#FFCC80"/>
<path id="Vector_2" d="M40.9466 42.5692L35.4466 35.0692C35.2871 34.8474 35.0736 34.6789 34.8303 34.5835C34.5871 34.488 34.3242 34.4692 34.0716 34.5292L21.9991 37.4992L9.92661 34.4992C9.67406 34.4392 9.4111 34.458 9.16791 34.5535C8.9247 34.6489 8.71111 34.8174 8.55161 35.0392L3.05161 42.5392C2.89201 42.7588 2.79196 43.0227 2.7628 43.3011C2.73364 43.5793 2.77652 43.8612 2.88661 44.1142C2.99408 44.3751 3.16767 44.5971 3.38693 44.7538C3.60618 44.9106 3.86196 44.9958 4.12411 44.9992H39.8741C40.1333 44.9985 40.387 44.9178 40.6059 44.7664C40.8249 44.6152 41.0002 44.3995 41.1116 44.1442C41.2217 43.8912 41.2645 43.6093 41.2354 43.3311C41.2062 43.0527 41.1062 42.7888 40.9466 42.5692Z" fill="#2672E7"/>
<path id="Vector_3" d="M40.275 8.99962L22.4 2.99962C22.1386 2.92461 21.8639 2.92461 21.6025 2.99962L3.7275 8.99962C3.43521 9.09591 3.18061 9.2956 3.00384 9.56719C2.82709 9.83878 2.73822 10.1668 2.75125 10.4996C2.73984 10.8363 2.83265 11.1673 3.01475 11.4395C3.19682 11.7116 3.45759 11.9089 3.755 11.9996L21.63 17.3996C21.872 17.4797 22.1305 17.4797 22.3725 17.3996L40.2475 11.9996C40.5449 11.9089 40.8056 11.7116 40.9878 11.4395C41.1698 11.1673 41.2627 10.8363 41.2513 10.4996C41.2643 10.1668 41.1754 9.83878 40.9987 9.56719C40.8218 9.2956 40.5673 9.09591 40.275 8.99962Z" fill="#2672E7"/>
<path id="Vector_4" d="M15.4275 9C15.229 8.99999 15.0326 9.04691 14.8522 9.13754C14.6718 9.22817 14.5116 9.36034 14.3825 9.525L12.0175 12.525C11.8045 12.7967 11.6875 13.1425 11.6875 13.5V24.435C11.6911 27.0475 12.6441 29.5518 14.3374 31.3992C16.0309 33.2464 18.3264 34.2861 20.7212 34.29H22V9H15.4275Z" fill="#FFE0B2"/>
<path id="Vector_5" d="M9.92661 34.4992C9.67406 34.4392 9.4111 34.458 9.16791 34.5535C8.9247 34.6489 8.71111 34.8174 8.55161 35.0392L3.05161 42.5392C2.89201 42.7588 2.79196 43.0227 2.7628 43.3011C2.73364 43.5793 2.77652 43.8612 2.88661 44.1142C2.99408 44.3751 3.16767 44.5971 3.38693 44.7538C3.60618 44.9106 3.86196 44.9958 4.12411 44.9992H21.9991V37.4992L9.92661 34.4992Z" fill="#2672E7"/>
<path id="Vector_6" d="M21.6025 2.99967L3.7275 8.99967C3.43521 9.09597 3.18061 9.29565 3.00384 9.56724C2.82709 9.83884 2.73822 10.1669 2.75125 10.4997C2.73984 10.8363 2.83265 11.1674 3.01475 11.4395C3.19682 11.7116 3.45759 11.9089 3.755 11.9997L21.63 17.3996C21.7529 17.4215 21.8783 17.4215 22.0013 17.3996V2.99967C21.8691 2.97667 21.7346 2.97667 21.6025 2.99967Z" fill="#2672E7"/>
</g>
</svg>
